<svg width="1200" height="698" viewBox="0 0 1200 698" fill="none" xmlns="http://www.w3.org/2000/svg">
<path fill-rule="evenodd" clip-rule="evenodd" d="M748.952 0C762.327 0 772.543 2.96229 779.197 8.75001C785.595 14.4732 788.889 24.303 788.889 38.0719V45.8601C788.889 59.6468 785.679 69.3575 779.197 74.8737C772.543 80.4695 762.378 83.3333 748.952 83.3333H744.734C731.031 83.3333 720.715 80.5285 714.325 74.911C708.008 69.4114 704.762 59.629 704.762 45.8601V38.0719C704.762 24.3708 708.008 14.4732 714.325 8.75001C720.844 2.94282 731.081 0 744.734 0H748.952ZM1074.46 142.841C1050.64 134.464 1022.03 133.396 965.611 133.336L849.173 133.333V190.476H882.634V419.038H961.503V337.347H1002.63L1078.42 476.223C1083.93 486.891 1090.26 494.281 1097.37 498.501C1104.38 502.845 1115 504.984 1129.19 504.984C1136.1 504.984 1145.34 504.502 1156.88 503.564C1168.45 502.746 1182.61 501.751 1200 500.713V449.097H1152.97L1080.8 324.538C1129.91 310.336 1142.95 272.818 1142.95 236.721C1142.95 207.342 1134.51 163.806 1074.46 142.841ZM284.123 143.527C277.666 136.757 265.593 133.351 247.831 133.351C239.901 133.351 229.266 133.781 216.031 134.791C202.804 135.798 190.725 137.013 179.695 138.621V190.476H214.75V348.416C206.446 350.399 197.627 351.828 188.332 352.758C187.831 352.813 187.253 352.879 186.604 352.953C175.256 354.251 142.42 358.006 126.191 345.47C119.344 340.222 117.112 329.773 117.112 316.945V177.062C117.112 161.521 113.901 150.353 107.505 143.527C101.026 136.757 88.9251 133.351 71.1482 133.351C63.1834 133.351 52.5619 133.781 39.4204 134.791C26.1225 135.798 10.9939 137.013 0 138.621V190.476H38.0952V328.015C38.0952 368.951 51.2517 389.883 59.0973 397.441C79.7195 417.124 107.287 424.427 132.713 424.427C171.814 424.427 203.945 403.866 216.433 394.542C218.721 403.076 223.272 409.301 230.06 413.149C236.893 417.049 247.056 419.048 260.719 419.048C286.11 419.048 328.769 413.149 328.769 413.149V361.871H293.61V177.062C293.61 161.521 290.575 150.353 284.123 143.527ZM790.358 143.527C783.878 136.757 771.687 133.351 753.494 133.351C737.071 133.351 704.418 137.105 704.418 137.105C697.916 137.733 691.314 138.381 685.714 139.149V190.697H723.81V419.048H800V177.062C800 161.536 796.844 150.353 790.358 143.527ZM636.614 223.73C636.614 176.071 615.02 127.507 550.942 127.507C534.313 127.507 490.956 129.544 457.833 157.258C455.22 149.101 450.403 143.037 443.444 139.138C436.408 135.288 425.893 133.351 411.891 133.351C389.248 133.351 353.825 137.215 342.857 139.138V190.476L380.952 190.304V419.048H457.143V203.192L457.159 203.188C465.147 201.213 498.397 192.991 533.926 199.241C539.933 200.282 544.857 202.732 548.626 206.225C554.71 212.036 557.775 221.612 557.775 234.794V375.423C557.775 391.001 560.858 402.365 567.359 409.279C571.311 413.488 577.748 415.88 581.087 416.718C581.41 416.821 581.657 416.907 582.038 416.973C586.151 418.004 590.919 418.688 596.341 418.959C597.513 419.06 598.682 419.086 599.87 419.113C600.109 419.118 600.349 419.124 600.589 419.13C600.99 419.13 601.369 419.16 601.748 419.189C602.126 419.219 602.505 419.249 602.906 419.249H604.237C605.695 419.213 607.254 419.181 608.943 419.145C611.362 419.095 614.047 419.038 617.084 418.959C622.696 418.717 628.599 418.311 634.642 417.783C640.642 417.147 670.998 413.35 670.998 413.35V361.871H636.614V223.73ZM961.503 187.516H1005.03C1057.98 187.516 1064.22 213.237 1064.22 234.881C1064.22 257.57 1048.81 284.098 1008.13 284.098H961.503V187.516Z" fill="black"/>
<path fill-rule="evenodd" clip-rule="evenodd" d="M624.274 554.91C626.383 565.897 635.816 575.552 653.572 575.552C670.552 575.552 681.649 564.787 681.649 552.136C681.649 540.04 674.769 533.048 660.564 529.053L652.129 526.722C643.584 524.281 640.366 521.617 640.366 515.513C640.366 509.854 645.027 505.082 653.905 505.082C661.562 505.082 667.222 509.743 668.554 516.734L681.205 514.293C679.208 502.973 669.664 493.651 653.794 493.651C638.479 493.651 627.381 503.528 627.381 516.401C627.381 529.275 635.483 535.046 647.801 538.597L656.235 540.927C665.558 543.702 668.443 546.809 668.443 553.135C668.443 559.461 662.783 564.122 653.794 564.122C644.361 564.122 638.368 559.461 636.703 552.025L624.274 554.91ZM86.3709 573.999H38.0957V495.205H51.524V562.346H86.3709V573.999ZM94.5078 573.999L126.469 495.205H139.787L171.637 573.999H157.765L150.219 554.689H115.594L108.047 573.999H94.5078ZM120.033 543.48H145.779L137.456 522.061C135.681 517.511 133.128 510.298 133.128 510.298H132.684C132.684 510.298 130.243 517.511 128.467 522.061L120.033 543.48ZM239.842 575.663C258.153 575.663 271.248 565.786 271.248 543.258V495.205H257.82V542.592C257.82 555.243 252.937 563.123 239.842 563.123C226.857 563.123 221.863 555.243 221.863 542.592V495.205H208.435V543.258C208.435 565.786 221.53 575.663 239.842 575.663ZM291.883 573.999V495.205H305.422L333.722 539.596C337.384 545.255 342.045 553.357 342.045 553.357H342.489C342.156 548.696 341.934 541.593 341.934 537.598V495.205H355.029V573.999H341.823L313.302 529.497C309.64 523.837 304.979 515.624 304.979 515.624H304.535C304.868 520.396 304.979 527.499 304.979 531.494V573.999H291.883ZM376.291 495.205V573.999H389.719V495.205H376.291ZM402.742 495.205H416.947L434.593 543.924C436.701 549.584 438.588 556.353 438.588 556.353H439.032C439.032 556.353 440.918 549.584 443.027 543.924L460.783 495.205H474.766L445.357 573.999H432.151L402.742 495.205ZM487.776 573.999H538.604V562.346H500.871V539.818H536.273V528.054H500.871V506.857H538.16V495.205H487.776V573.999ZM556.144 573.999V495.205H590.325C607.638 495.205 614.629 505.636 614.629 517.622C614.629 526.611 610.523 533.825 601.201 536.599V537.043C603.975 538.486 606.306 542.037 608.193 547.364L617.737 573.999H604.086L595.541 549.584C593.544 544.035 591.657 542.481 586.996 542.481H569.35V573.999H556.144ZM588.217 531.161C597.317 531.161 601.09 526.167 601.09 518.843C601.09 511.407 597.317 506.524 588.217 506.524H569.35V531.161H588.217ZM698.191 573.999V495.205H711.619V573.999H698.191ZM732.854 495.205V573.999H757.269C784.792 573.999 799.774 558.129 799.774 534.602C799.774 511.074 784.792 495.205 757.269 495.205H732.854ZM757.047 506.857C776.246 506.857 785.79 517.067 785.79 534.602C785.79 552.136 776.246 562.346 757.047 562.346H746.061V506.857H757.047ZM836.661 495.205H849.978L881.828 573.999H867.956L860.41 554.689H825.785L818.238 573.999H804.699L836.661 495.205ZM830.224 543.48H855.971L847.647 522.061C845.872 517.511 843.319 510.298 843.319 510.298H842.875C842.875 510.298 840.434 517.511 838.658 522.061L830.224 543.48ZM918.607 495.205H894.192V573.999H918.607C946.13 573.999 961.112 558.129 961.112 534.602C961.112 511.074 946.13 495.205 918.607 495.205ZM918.385 506.857C937.584 506.857 947.128 517.067 947.128 534.602C947.128 552.136 937.584 562.346 918.385 562.346H907.398V506.857H918.385ZM38.0957 697.816H88.8833V686.173H51.1807V663.662H86.5546V651.908H51.1807V630.728H88.4398V619.084H38.0957V697.816ZM105.856 619.084V697.816H118.941V655.345C118.941 651.353 118.83 644.256 118.497 639.488H118.941C118.941 639.488 123.598 647.694 127.257 653.349L155.756 697.816H168.952V619.084H155.867V661.444C155.867 665.436 156.089 672.533 156.421 677.191H155.978C155.978 677.191 151.32 669.096 147.661 663.44L119.384 619.084H105.856ZM216.36 697.816V619.084H229.778V697.816H216.36ZM250.996 619.084V697.816H264.081V655.345C264.081 651.353 263.97 644.256 263.637 639.488H264.081C264.081 639.488 268.738 647.694 272.398 653.349L300.896 697.816H314.092V619.084H301.007V661.444C301.007 665.436 301.229 672.533 301.562 677.191H301.118C301.118 677.191 296.461 669.096 292.801 663.44L264.524 619.084H250.996ZM327.353 630.728V619.084H385.681V630.728H363.171V697.816H349.864V630.728H327.353ZM398.778 697.816H449.566V686.173H411.863V663.662H447.237V651.908H411.863V630.728H449.123V619.084H398.778V697.816ZM467.093 697.816V619.084H501.247C518.546 619.084 525.532 629.508 525.532 641.484C525.532 650.466 521.429 657.674 512.114 660.446V660.89C514.886 662.331 517.215 665.88 519.1 671.202L528.637 697.816H514.997L506.459 673.42C504.463 667.876 502.578 666.323 497.92 666.323H480.289V697.816H467.093ZM499.14 655.013C508.233 655.013 512.003 650.022 512.003 642.704C512.003 635.274 508.233 630.395 499.14 630.395H480.289V655.013H499.14ZM543.312 619.084V697.816H556.397V655.345C556.397 651.353 556.286 644.256 555.954 639.488H556.397C556.397 639.488 561.055 647.694 564.714 653.349L593.213 697.816H606.409V619.084H593.324V661.444C593.324 665.436 593.545 672.533 593.878 677.191H593.435C593.435 677.191 588.777 669.096 585.118 663.44L556.841 619.084H543.312ZM678.441 697.816H627.654V619.084H677.998V630.728H640.739V651.908H676.113V663.662H640.739V686.173H678.441V697.816ZM687.984 619.084V630.728H710.495V697.816H723.801V630.728H746.312V619.084H687.984Z" fill="#0053AF"/>
</svg>
